<svg width="190" height="55" viewBox="0 0 190 55" fill="none" xmlns="http://www.w3.org/2000/svg">
<path d="M20 1V9H34V45H53V1H20Z" fill="#D9D9D9"/>
<path d="M1 9V53H34V45H20V9H1Z" fill="#D9D9D9"/>
<path d="M34 9H20V45H34V9Z" fill="#41B3F4"/>
<path d="M20 1H53V45H34M20 1V9M20 1C20 3.85157 20 6.49524 20 9M20 45H34M20 45C20 30.6685 20 21.5885 20 9M20 45V9M1 9V53H34V45M1 9C8.50884 9 14.0955 9 20 9M1 9H20M34 9H20M34 9V45M34 9C28.6215 9 24.2293 9 20 9" stroke="black"/>
<path d="M64.9727 23V6.70909H74.8045V8.45909H66.9455V13.9636H74.2955V15.7136H66.9455V21.25H74.9318V23H64.9727ZM81.5548 6.70909L85.7548 13.4864H85.882L90.082 6.70909H92.4048L87.282 14.8545L92.4048 23H90.082L85.882 16.35H85.7548L81.5548 23H79.232L84.482 14.8545L79.232 6.70909H81.5548ZM97.8803 23H95.8121L101.794 6.70909H103.83L109.812 23H107.744L102.876 9.28636H102.748L97.8803 23ZM98.6439 16.6364H106.98V18.3864H98.6439V16.6364ZM114.59 6.70909H116.944L122.481 20.2318H122.671L128.208 6.70909H130.562V23H128.717V10.6227H128.558L123.467 23H121.685L116.594 10.6227H116.435V23H114.59V6.70909ZM64.9727 50V33.7091H70.4773C71.75 33.7091 72.7947 33.9265 73.6114 34.3614C74.428 34.7909 75.0326 35.3822 75.425 36.1352C75.8174 36.8883 76.0136 37.7447 76.0136 38.7045C76.0136 39.6644 75.8174 40.5155 75.425 41.258C75.0326 42.0004 74.4307 42.5837 73.6193 43.008C72.808 43.4269 71.7712 43.6364 70.5091 43.6364H66.0545V41.8545H70.4455C71.3152 41.8545 72.0152 41.7273 72.5455 41.4727C73.0811 41.2182 73.4682 40.8576 73.7068 40.3909C73.9508 39.9189 74.0727 39.3568 74.0727 38.7045C74.0727 38.0523 73.9508 37.4822 73.7068 36.9943C73.4629 36.5064 73.0731 36.1299 72.5375 35.8648C72.0019 35.5943 71.2939 35.4591 70.4136 35.4591H66.9455V50H64.9727ZM72.6409 42.6818L76.65 50H74.3591L70.4136 42.6818H72.6409ZM86.2778 50.2545C85.1005 50.2545 84.085 49.9947 83.2312 49.475C82.3827 48.95 81.7278 48.2182 81.2664 47.2795C80.8104 46.3356 80.5823 45.2379 80.5823 43.9864C80.5823 42.7348 80.8104 41.6318 81.2664 40.6773C81.7278 39.7174 82.3695 38.9697 83.1914 38.4341C84.0187 37.8932 84.9838 37.6227 86.0869 37.6227C86.7232 37.6227 87.3516 37.7288 87.9721 37.9409C88.5926 38.153 89.1573 38.4977 89.6664 38.975C90.1755 39.447 90.5812 40.0727 90.8835 40.8523C91.1857 41.6318 91.3369 42.5917 91.3369 43.7318V44.5273H81.9187V42.9045H89.4278C89.4278 42.2152 89.2899 41.6 89.0141 41.0591C88.7437 40.5182 88.3566 40.0913 87.8528 39.7784C87.3543 39.4655 86.7657 39.3091 86.0869 39.3091C85.3391 39.3091 84.6922 39.4947 84.146 39.8659C83.6051 40.2318 83.1888 40.7091 82.8971 41.2977C82.6054 41.8864 82.4596 42.5174 82.4596 43.1909V44.2727C82.4596 45.1955 82.6187 45.9777 82.9369 46.6193C83.2604 47.2557 83.7085 47.7409 84.2812 48.075C84.8539 48.4038 85.5195 48.5682 86.2778 48.5682C86.771 48.5682 87.2164 48.4992 87.6141 48.3614C88.0172 48.2182 88.3645 48.0061 88.6562 47.725C88.9479 47.4386 89.1732 47.0833 89.3323 46.6591L91.146 47.1682C90.9551 47.7833 90.6342 48.3242 90.1835 48.7909C89.7327 49.2523 89.1759 49.6129 88.513 49.8727C87.8501 50.1273 87.1051 50.2545 86.2778 50.2545ZM101.873 37.7818V39.3727H95.2871V37.7818H101.873ZM97.2598 50V36.0955C97.2598 35.3955 97.4242 34.8121 97.753 34.3455C98.0818 33.8788 98.5087 33.5288 99.0337 33.2955C99.5587 33.0621 100.113 32.9455 100.696 32.9455C101.158 32.9455 101.534 32.9826 101.826 33.0568C102.117 33.1311 102.335 33.2 102.478 33.2636L101.937 34.8864C101.842 34.8545 101.709 34.8148 101.539 34.767C101.375 34.7193 101.158 34.6955 100.887 34.6955C100.267 34.6955 99.8185 34.8519 99.5428 35.1648C99.2723 35.4777 99.1371 35.9364 99.1371 36.5409V50H97.2598ZM106.744 50V37.7818H108.558V39.6273H108.685C108.908 39.0227 109.311 38.5322 109.894 38.1557C110.478 37.7792 111.135 37.5909 111.867 37.5909C112.005 37.5909 112.177 37.5936 112.384 37.5989C112.591 37.6042 112.747 37.6121 112.854 37.6227V39.5318C112.79 39.5159 112.644 39.492 112.416 39.4602C112.193 39.4231 111.957 39.4045 111.708 39.4045C111.114 39.4045 110.584 39.5292 110.117 39.7784C109.656 40.0223 109.29 40.3617 109.019 40.7966C108.754 41.2261 108.622 41.7167 108.622 42.2682V50H106.744ZM122.07 50.2545C120.892 50.2545 119.877 49.9947 119.023 49.475C118.175 48.95 117.52 48.2182 117.058 47.2795C116.602 46.3356 116.374 45.2379 116.374 43.9864C116.374 42.7348 116.602 41.6318 117.058 40.6773C117.52 39.7174 118.161 38.9697 118.983 38.4341C119.811 37.8932 120.776 37.6227 121.879 37.6227C122.515 37.6227 123.144 37.7288 123.764 37.9409C124.384 38.153 124.949 38.4977 125.458 38.975C125.967 39.447 126.373 40.0727 126.675 40.8523C126.978 41.6318 127.129 42.5917 127.129 43.7318V44.5273H117.711V42.9045H125.22C125.22 42.2152 125.082 41.6 124.806 41.0591C124.536 40.5182 124.148 40.0913 123.645 39.7784C123.146 39.4655 122.558 39.3091 121.879 39.3091C121.131 39.3091 120.484 39.4947 119.938 39.8659C119.397 40.2318 118.981 40.7091 118.689 41.2977C118.397 41.8864 118.251 42.5174 118.251 43.1909V44.2727C118.251 45.1955 118.411 45.9777 118.729 46.6193C119.052 47.2557 119.5 47.7409 120.073 48.075C120.646 48.4038 121.311 48.5682 122.07 48.5682C122.563 48.5682 123.008 48.4992 123.406 48.3614C123.809 48.2182 124.156 48.0061 124.448 47.725C124.74 47.4386 124.965 47.0833 125.124 46.6591L126.938 47.1682C126.747 47.7833 126.426 48.3242 125.975 48.7909C125.525 49.2523 124.968 49.6129 124.305 49.8727C123.642 50.1273 122.897 50.2545 122.07 50.2545ZM140.879 40.5182L139.193 40.9955C139.087 40.7144 138.93 40.4413 138.723 40.1761C138.522 39.9057 138.246 39.683 137.896 39.508C137.546 39.333 137.098 39.2455 136.552 39.2455C135.804 39.2455 135.181 39.4178 134.682 39.7625C134.189 40.1019 133.943 40.5341 133.943 41.0591C133.943 41.5258 134.112 41.8943 134.452 42.1648C134.791 42.4352 135.321 42.6606 136.043 42.8409L137.856 43.2864C138.949 43.5515 139.763 43.9572 140.298 44.5034C140.834 45.0443 141.102 45.7417 141.102 46.5955C141.102 47.2955 140.9 47.9212 140.497 48.4727C140.099 49.0242 139.543 49.4591 138.827 49.7773C138.111 50.0955 137.278 50.2545 136.329 50.2545C135.083 50.2545 134.051 49.9841 133.235 49.4432C132.418 48.9023 131.901 48.1121 131.684 47.0727L133.465 46.6273C133.635 47.2848 133.956 47.778 134.428 48.1068C134.905 48.4356 135.528 48.6 136.297 48.6C137.172 48.6 137.867 48.4144 138.381 48.0432C138.901 47.6667 139.161 47.2159 139.161 46.6909C139.161 46.2667 139.012 45.9114 138.715 45.625C138.418 45.3333 137.962 45.1159 137.347 44.9727L135.311 44.4955C134.192 44.2303 133.37 43.8193 132.845 43.2625C132.325 42.7004 132.065 41.9977 132.065 41.1545C132.065 40.4652 132.259 39.8553 132.646 39.325C133.038 38.7947 133.571 38.3784 134.245 38.0761C134.924 37.7739 135.693 37.6227 136.552 37.6227C137.761 37.6227 138.71 37.8879 139.399 38.4182C140.094 38.9485 140.587 39.6485 140.879 40.5182ZM148.045 42.65V50H146.168V33.7091H148.045V39.6909H148.204C148.49 39.0598 148.92 38.5587 149.493 38.1875C150.071 37.811 150.84 37.6227 151.799 37.6227C152.632 37.6227 153.361 37.7898 153.987 38.1239C154.613 38.4527 155.098 38.9591 155.443 39.6432C155.793 40.322 155.968 41.1864 155.968 42.2364V50H154.09V42.3636C154.09 41.3932 153.838 40.6428 153.335 40.1125C152.836 39.5769 152.144 39.3091 151.258 39.3091C150.643 39.3091 150.092 39.439 149.604 39.6989C149.121 39.9587 148.74 40.3379 148.458 40.8364C148.183 41.3348 148.045 41.9394 148.045 42.65ZM166.765 50.2545C165.587 50.2545 164.572 49.9947 163.718 49.475C162.87 48.95 162.215 48.2182 161.753 47.2795C161.297 46.3356 161.069 45.2379 161.069 43.9864C161.069 42.7348 161.297 41.6318 161.753 40.6773C162.215 39.7174 162.856 38.9697 163.678 38.4341C164.506 37.8932 165.471 37.6227 166.574 37.6227C167.21 37.6227 167.839 37.7288 168.459 37.9409C169.079 38.153 169.644 38.4977 170.153 38.975C170.662 39.447 171.068 40.0727 171.37 40.8523C171.673 41.6318 171.824 42.5917 171.824 43.7318V44.5273H162.406V42.9045H169.915C169.915 42.2152 169.777 41.6 169.501 41.0591C169.231 40.5182 168.843 40.0913 168.34 39.7784C167.841 39.4655 167.253 39.3091 166.574 39.3091C165.826 39.3091 165.179 39.4947 164.633 39.8659C164.092 40.2318 163.676 40.7091 163.384 41.2977C163.092 41.8864 162.946 42.5174 162.946 43.1909V44.2727C162.946 45.1955 163.106 45.9777 163.424 46.6193C163.747 47.2557 164.195 47.7409 164.768 48.075C165.341 48.4038 166.006 48.5682 166.765 48.5682C167.258 48.5682 167.703 48.4992 168.101 48.3614C168.504 48.2182 168.851 48.0061 169.143 47.725C169.435 47.4386 169.66 47.0833 169.819 46.6591L171.633 47.1682C171.442 47.7833 171.121 48.3242 170.67 48.7909C170.22 49.2523 169.663 49.6129 169 49.8727C168.337 50.1273 167.592 50.2545 166.765 50.2545ZM176.919 50V37.7818H178.733V39.6273H178.86C179.083 39.0227 179.486 38.5322 180.069 38.1557C180.653 37.7792 181.31 37.5909 182.042 37.5909C182.18 37.5909 182.352 37.5936 182.559 37.5989C182.766 37.6042 182.922 37.6121 183.029 37.6227V39.5318C182.965 39.5159 182.819 39.492 182.591 39.4602C182.368 39.4231 182.132 39.4045 181.883 39.4045C181.289 39.4045 180.759 39.5292 180.292 39.7784C179.831 40.0223 179.465 40.3617 179.194 40.7966C178.929 41.2261 178.797 41.7167 178.797 42.2682V50H176.919Z" fill="black"/>
</svg>
